<svg xmlns="http://www.w3.org/2000/svg" viewBox="0 0 64 64">
  <defs>
    <linearGradient id="bg" x1="0%" y1="0%" x2="100%" y2="100%">
      <stop offset="0%" stop-color="#1a1a2e"/>
      <stop offset="100%" stop-color="#0f0f13"/>
    </linearGradient>
    <linearGradient id="ink" x1="0%" y1="0%" x2="100%" y2="100%">
      <stop offset="0%" stop-color="#9b8cff"/>
      <stop offset="100%" stop-color="#6d5ce7"/>
    </linearGradient>
  </defs>

  <!-- background -->
  <circle cx="32" cy="32" r="32" fill="url(#bg)"/>

  <!-- infinity symbol (lemniscate approximation) -->
  <path d="
    M32,32
    C32,24.5 27,19 20,19
    C13,19  7,24.5  7,32
    C7,39.5 13,45  20,45
    C27,45  32,39.5 32,32
    C32,24.5 37,19  44,19
    C51,19  57,24.5 57,32
    C57,39.5 51,45  44,45
    C37,45  32,39.5 32,32
    Z"
    fill="none"
    stroke="url(#ink)"
    stroke-width="5.5"
    stroke-linecap="round"
    stroke-linejoin="round"/>
</svg>
